<mxfile host="app.diagrams.net" modified="2023-12-14T06:27:30.226Z" agent="Mozilla/5.0 (Macintosh; Intel Mac OS X 10_15_7) AppleWebKit/537.36 (KHTML, like Gecko) Chrome/120.0.0.0 Safari/537.36" etag="f9henuCmQ4awjXHCPZg0" version="22.1.8" type="github">
  <diagram name="第 1 页" id="hFva2WAniShFFfcunT4v">
    <mxGraphModel dx="1026" dy="651" grid="1" gridSize="10" guides="1" tooltips="1" connect="1" arrows="1" fold="1" page="1" pageScale="1" pageWidth="1600" pageHeight="900" math="0" shadow="0">
      <root>
        <mxCell id="0" />
        <mxCell id="1" parent="0" />
        <mxCell id="oBDyeat0bFRR_VgskXgP-13" style="edgeStyle=orthogonalEdgeStyle;rounded=0;orthogonalLoop=1;jettySize=auto;html=1;exitX=0.5;exitY=0.5;exitDx=0;exitDy=0;exitPerimeter=0;entryX=0;entryY=0.5;entryDx=0;entryDy=0;" parent="1" source="oBDyeat0bFRR_VgskXgP-1" target="oBDyeat0bFRR_VgskXgP-2" edge="1">
          <mxGeometry relative="1" as="geometry" />
        </mxCell>
        <mxCell id="oBDyeat0bFRR_VgskXgP-15" value="页面浏览及操作" style="edgeLabel;html=1;align=center;verticalAlign=middle;resizable=0;points=[];" parent="oBDyeat0bFRR_VgskXgP-13" vertex="1" connectable="0">
          <mxGeometry x="-0.1795" y="2" relative="1" as="geometry">
            <mxPoint x="15" y="2" as="offset" />
          </mxGeometry>
        </mxCell>
        <mxCell id="oBDyeat0bFRR_VgskXgP-1" value="Actor" style="shape=umlActor;verticalLabelPosition=bottom;verticalAlign=top;html=1;outlineConnect=0;" parent="1" vertex="1">
          <mxGeometry x="90" y="330" width="30" height="60" as="geometry" />
        </mxCell>
        <mxCell id="oBDyeat0bFRR_VgskXgP-8" style="edgeStyle=orthogonalEdgeStyle;rounded=0;orthogonalLoop=1;jettySize=auto;html=1;exitX=1;exitY=0.5;exitDx=0;exitDy=0;" parent="1" source="oBDyeat0bFRR_VgskXgP-2" target="oBDyeat0bFRR_VgskXgP-4" edge="1">
          <mxGeometry relative="1" as="geometry" />
        </mxCell>
        <mxCell id="oBDyeat0bFRR_VgskXgP-9" value="上报" style="edgeLabel;html=1;align=center;verticalAlign=middle;resizable=0;points=[];" parent="oBDyeat0bFRR_VgskXgP-8" vertex="1" connectable="0">
          <mxGeometry x="-0.22" y="2" relative="1" as="geometry">
            <mxPoint as="offset" />
          </mxGeometry>
        </mxCell>
        <mxCell id="oBDyeat0bFRR_VgskXgP-2" value="" style="rounded=1;whiteSpace=wrap;html=1;dashed=1;" parent="1" vertex="1">
          <mxGeometry x="250" y="220" width="240" height="280" as="geometry" />
        </mxCell>
        <mxCell id="oBDyeat0bFRR_VgskXgP-3" value="应用信息" style="rounded=1;whiteSpace=wrap;html=1;fillColor=#dae8fc;strokeColor=#6c8ebf;" parent="1" vertex="1">
          <mxGeometry x="270" y="250" width="90" height="40" as="geometry" />
        </mxCell>
        <mxCell id="z42cSibjOed3D1rj0la6-1" style="edgeStyle=orthogonalEdgeStyle;rounded=0;orthogonalLoop=1;jettySize=auto;html=1;exitX=0.875;exitY=0.5;exitDx=0;exitDy=0;exitPerimeter=0;" edge="1" parent="1" source="oBDyeat0bFRR_VgskXgP-4">
          <mxGeometry relative="1" as="geometry">
            <mxPoint x="800" y="360" as="targetPoint" />
          </mxGeometry>
        </mxCell>
        <mxCell id="z42cSibjOed3D1rj0la6-3" value="写入" style="edgeLabel;html=1;align=center;verticalAlign=middle;resizable=0;points=[];" vertex="1" connectable="0" parent="z42cSibjOed3D1rj0la6-1">
          <mxGeometry x="0.465" y="1" relative="1" as="geometry">
            <mxPoint x="-2" as="offset" />
          </mxGeometry>
        </mxCell>
        <mxCell id="oBDyeat0bFRR_VgskXgP-4" value="t2.xiaohongshu.com" style="ellipse;shape=cloud;whiteSpace=wrap;html=1;" parent="1" vertex="1">
          <mxGeometry x="550" y="315" width="210" height="90" as="geometry" />
        </mxCell>
        <mxCell id="oBDyeat0bFRR_VgskXgP-7" value="埋点 SDK" style="text;html=1;strokeColor=none;fillColor=none;align=center;verticalAlign=middle;whiteSpace=wrap;rounded=0;fontStyle=1;fontSize=14;" parent="1" vertex="1">
          <mxGeometry x="280" y="460" width="70" height="30" as="geometry" />
        </mxCell>
        <mxCell id="oBDyeat0bFRR_VgskXgP-16" value="浏览器信息" style="rounded=1;whiteSpace=wrap;html=1;fillColor=#dae8fc;strokeColor=#6c8ebf;" parent="1" vertex="1">
          <mxGeometry x="380" y="250" width="90" height="40" as="geometry" />
        </mxCell>
        <mxCell id="oBDyeat0bFRR_VgskXgP-17" value="设备信息" style="rounded=1;whiteSpace=wrap;html=1;fillColor=#dae8fc;strokeColor=#6c8ebf;" parent="1" vertex="1">
          <mxGeometry x="270" y="310" width="90" height="40" as="geometry" />
        </mxCell>
        <mxCell id="oBDyeat0bFRR_VgskXgP-18" value="页面信息" style="rounded=1;whiteSpace=wrap;html=1;fillColor=#dae8fc;strokeColor=#6c8ebf;" parent="1" vertex="1">
          <mxGeometry x="380" y="310" width="90" height="40" as="geometry" />
        </mxCell>
        <mxCell id="oBDyeat0bFRR_VgskXgP-19" value="网络信息" style="rounded=1;whiteSpace=wrap;html=1;fillColor=#dae8fc;strokeColor=#6c8ebf;" parent="1" vertex="1">
          <mxGeometry x="270" y="370" width="90" height="40" as="geometry" />
        </mxCell>
        <mxCell id="oBDyeat0bFRR_VgskXgP-20" value="用户信息" style="rounded=1;whiteSpace=wrap;html=1;fillColor=#dae8fc;strokeColor=#6c8ebf;" parent="1" vertex="1">
          <mxGeometry x="380" y="370" width="90" height="40" as="geometry" />
        </mxCell>
        <mxCell id="oBDyeat0bFRR_VgskXgP-21" value="交互信息" style="rounded=1;whiteSpace=wrap;html=1;fillColor=#dae8fc;strokeColor=#6c8ebf;" parent="1" vertex="1">
          <mxGeometry x="380" y="430" width="90" height="40" as="geometry" />
        </mxCell>
        <mxCell id="oBDyeat0bFRR_VgskXgP-24" value="ozone-schema" style="ellipse;whiteSpace=wrap;html=1;fillColor=#ffe6cc;strokeColor=#d79b00;" parent="1" vertex="1">
          <mxGeometry x="290" y="120" width="110" height="60" as="geometry" />
        </mxCell>
        <mxCell id="oBDyeat0bFRR_VgskXgP-25" style="edgeStyle=orthogonalEdgeStyle;orthogonalLoop=1;jettySize=auto;html=1;exitX=0.8;exitY=0.875;exitDx=0;exitDy=0;entryX=0.7;entryY=-0.007;entryDx=0;entryDy=0;entryPerimeter=0;exitPerimeter=0;curved=1;" parent="1" source="oBDyeat0bFRR_VgskXgP-24" target="oBDyeat0bFRR_VgskXgP-2" edge="1">
          <mxGeometry relative="1" as="geometry" />
        </mxCell>
        <mxCell id="oBDyeat0bFRR_VgskXgP-26" value="依赖" style="edgeLabel;html=1;align=center;verticalAlign=middle;resizable=0;points=[];" parent="oBDyeat0bFRR_VgskXgP-25" vertex="1" connectable="0">
          <mxGeometry x="-0.4019" y="-3" relative="1" as="geometry">
            <mxPoint as="offset" />
          </mxGeometry>
        </mxCell>
        <mxCell id="Cvx8ApLQqQMucq32pWc3-1" value="kafka" style="shape=cylinder3;whiteSpace=wrap;html=1;boundedLbl=1;backgroundOutline=1;size=15;" parent="1" vertex="1">
          <mxGeometry x="810" y="320" width="60" height="80" as="geometry" />
        </mxCell>
      </root>
    </mxGraphModel>
  </diagram>
</mxfile>
